<?xml version="1.0" encoding="UTF-8"?>
<svg xmlns="http://www.w3.org/2000/svg" xmlns:xlink="http://www.w3.org/1999/xlink" width="24px" height="24px" viewBox="0 0 24 24" version="1.1">
<g id="surface1">
<path style="fill-rule:nonzero;fill:rgb(100%,100%,100%);fill-opacity:1;stroke-width:1;stroke-linecap:butt;stroke-linejoin:miter;stroke:rgb(100%,100%,100%);stroke-opacity:1;stroke-miterlimit:4;" d="M 159.375 149.984741 C 200.723267 149.984741 234.393311 116.366577 234.393311 75.018311 C 234.393311 33.670044 200.723267 0 159.375 0 C 118.026733 0 84.356689 33.670044 84.356689 75.018311 C 84.356689 116.366577 118.026733 149.984741 159.375 149.984741 Z M 159.375 29.986572 C 184.173584 29.986572 204.354858 50.167847 204.354858 75.018311 C 204.354858 99.816895 184.173584 119.998169 159.375 119.998169 C 134.576416 119.998169 114.395142 99.816895 114.395142 75.018311 C 114.395142 50.167847 134.576416 29.986572 159.375 29.986572 Z M 159.375 29.986572 " transform="matrix(0.0752941,0,0,0.0752941,0,0)"/>
<path style="fill-rule:nonzero;fill:rgb(100%,100%,100%);fill-opacity:1;stroke-width:1;stroke-linecap:butt;stroke-linejoin:miter;stroke:rgb(100%,100%,100%);stroke-opacity:1;stroke-miterlimit:4;" d="M 159.375 180.023193 C 91.152954 180.023193 35.641479 235.534668 35.641479 303.756714 L 35.641479 318.75 L 283.108521 318.75 L 283.108521 303.756714 C 283.108521 235.534668 227.597046 180.023193 159.375 180.023193 Z M 66.821289 288.763428 C 74.032593 244.146729 112.786865 210.009766 159.375 210.009766 C 205.963135 210.009766 244.717407 244.146729 251.928711 288.763428 Z M 66.821289 288.763428 " transform="matrix(0.0752941,0,0,0.0752941,0,0)"/>
</g>
</svg>
